<?xml version="1.0" encoding="UTF-8"?>
<svg width="142px" height="300px" viewBox="0 0 142 300" version="1.1" xmlns="http://www.w3.org/2000/svg" xmlns:xlink="http://www.w3.org/1999/xlink">
    <!-- Generator: Sketch 41.2 (35397) - http://www.bohemiancoding.com/sketch -->
    <title>comentarismo-bot</title>
    <desc>Created with Sketch.</desc>
    <defs></defs>
    <g id="Page-1" stroke="none" stroke-width="1" fill="none" fill-rule="evenodd">
        <g id="hipster-girl" transform="translate(-602.000000, -49.000000)">
            <g id="comentarismo-bot" transform="translate(602.000000, 49.000000)">
                <polygon id="Shape" fill="#F9DEC1" points="25.76 199.45 30.57 137.21 17.77 136.22 12.79 200.55 12.98 200.56 16.74 264.61 29.56 263.86 25.78 199.45"></polygon>
                <polygon id="Shape" fill="#D75C59" points="25.44 197.9 30.57 137.21 17.77 136.22 10.12 200.69 11.1 235.02 28.23 234.12"></polygon>
                <polygon id="Shape" fill="#D75C59" points="75.59 204.63 38.67 204.63 17.78 135.68 54.69 123.14 90.91 135.68"></polygon>
                <polygon id="Shape" fill="#879893" points="38.67 204.63 17.78 255.16 54.69 263.37 96.48 255.16 75.59 204.63"></polygon>
                <polygon id="Shape" fill="#879893" points="63.5 300 56.9 300 54.46 300 26.5 300 17.55 256.17 54.46 236.21 96.25 256.17 89.5 300"></polygon>
                <path d="M37.97,140.32 L37.97,240.15 C37.97,240.15 53.76,242.47 56.08,240.61 C56.08,240.61 49.58,156.61 48.19,143.1" id="Shape" fill="#5D6965"></path>
                <path d="M35.54,137.89 L35.54,237.72 C35.54,237.72 51.33,240.04 53.65,238.18 C53.65,238.18 47.15,154.18 45.76,140.67" id="Shape" fill="#879893"></path>
                <rect id="Rectangle-path" fill="#F9DEC1" transform="translate(107.562399, 164.644748) rotate(-40.580000) translate(-107.562399, -164.644748) " x="101.142399" y="132.384748" width="12.84" height="64.52"></rect>
                <rect id="Rectangle-path" fill="#F9DEC1" transform="translate(110.846339, 208.414324) rotate(-40.580000) translate(-110.846339, -208.414324) " x="78.5863389" y="201.994324" width="64.52" height="12.84"></rect>
                <path d="M88.15,131.04 C88.15,131.04 142.01,189.04 141.55,193.26 C141.09,197.48 103.47,232.26 103.47,232.26 L91.4,215.08 L118.33,191.4 L88.61,162.61 C88.61,162.61 76.51,154.72 74.15,151.47" id="Shape" fill="#D75C59"></path>
                <path d="M31.71,115.02 C31.71,115.02 29.62,128.25 31.01,138.7 C32.4,149.15 86.73,144.97 88.12,133.82 C88.8522064,126.56913 88.1418886,119.245039 86.03,112.27" id="Shape" fill="#5D6965"></path>
                <path d="M31.71,112.27 C31.71,112.27 29.62,125.5 31.01,135.95 C32.4,146.4 86.73,142.22 88.12,131.07 C88.8575434,123.805933 88.1471743,116.467718 86.03,109.48" id="Shape" fill="#879893"></path>
                <path d="M59.46,14.27 C7.03,14.27 11.69,81.4 11.69,81.4 C11.69,81.4 14.44,99.94 19.37,109.7 C21.91,114.7 47.63,133.46 58.56,133.49 C69.49,133.52 95.33,114.76 97.9,109.7 C103.64,98.34 105.74,78.38 105.74,78.38 C105.74,78.38 115.81,40.88 101.37,21.9 C94.46,12.86 76.4,14.27 59.46,14.27 Z" id="Shape" fill="#F9DEC1"></path>
                <path d="M36.91,14.46 C33.3167523,14.771823 29.7032477,14.771823 26.11,14.46 C20.11,13.94 11.34,14.33 4.89,24.26 C-1.56,34.19 -0.21,77.49 8.79,89.45 C10.7132059,91.8024206 13.6016573,93.1528176 16.64,93.12 C16.64,93.12 12.72,75.39 15.64,62 C19.97,42.05 43.16,28.76 44.58,25.57 C46.65,20.85 36.91,14.46 36.91,14.46 Z" id="Shape" fill="#F47B3C"></path>
                <path d="M36.91,14.46 C49.5620764,2.49102215 67.5545028,-1.98527202 84.34,2.66 C113.51,10.29 136.78,47.66 127.02,102.55 C120.25,140.66 98.82,151.41 98.82,151.41 C98.82,151.41 101.64,121.36 100.05,107.24 C98.46,93.12 97.44,64.37 79.79,52.84 C62.14,41.31 40.94,31.84 40.4,29.18 C39.86,26.52 44.5,24.18 43.25,22.43 C42,20.68 37.52,24.55 36.35,19.91 C35.9919787,18.0780011 36.1869089,16.1809121 36.91,14.46 Z" id="Shape" fill="#FBB040"></path>
                <path d="M110.81,62.71 C110.804505,61.9462323 110.183787,61.3299802 109.42,61.33 L85.58,61.33 C78.6646704,61.3390185 72.28729,65.0623393 68.88,71.08 C63.8523845,68.090619 57.5778534,68.152323 52.61,71.24 C49.2266842,65.1294415 42.7946776,61.3353234 35.81,61.33 L11.97,61.33 C11.2062125,61.3299802 10.5854949,61.9462323 10.58,62.71 L10.49,76.27 C10.4873353,76.6403805 10.6326041,76.9965069 10.8935691,77.2593493 C11.154534,77.5221917 11.5096099,77.6700096 11.88,77.67 C15.14,77.67 16.59,79.75 16.59,80.53 C16.5899994,87.3930724 20.2514046,93.734813 26.1949995,97.1663494 C32.1385945,100.597886 39.4614055,100.597886 45.4050005,97.1663494 C51.3485954,93.734813 55.0100006,87.3930724 55.01,80.53 C55.0090894,79.8887225 54.9757134,79.2479023 54.91,78.61 C56.6220819,77.2393446 58.7200569,76.4386175 60.91,76.32 C62.9373271,76.4137106 64.8906124,77.110069 66.52,78.32 C65.6913774,85.4089248 68.8612289,92.3728706 74.7512916,96.4035816 C80.6413542,100.434293 88.2805341,100.867226 94.5882828,97.5277987 C100.896032,94.1883713 104.832391,87.6271541 104.81,80.49 C104.81,79.7 106.26,77.63 109.52,77.63 C109.89039,77.6300096 110.245466,77.4821917 110.506431,77.2193493 C110.767396,76.9565069 110.912665,76.6003805 110.91,76.23 L110.81,62.71 Z M35.81,92.78 C29.0445118,92.78 23.56,87.2954882 23.56,80.53 C23.56,73.7645118 29.0445118,68.28 35.81,68.28 C42.5754882,68.28 48.06,73.7645118 48.06,80.53 C48.0600023,87.2971077 42.5771055,92.7844803 35.81,92.79 L35.81,92.78 Z M85.58,92.78 C78.8145118,92.78 73.33,87.2954882 73.33,80.53 C73.33,73.7645118 78.8145118,68.28 85.58,68.28 C92.3454882,68.28 97.83,73.7645118 97.83,80.53 C97.8300023,87.2971077 92.3471055,92.7844803 85.58,92.79 L85.58,92.78 Z" id="Shape" fill="#D75C59"></path>
                <circle id="Oval" fill="#3D191C" cx="85.58" cy="80.5" r="13"></circle>
                <circle id="Oval" fill="#3D191C" cx="35.81" cy="80.5" r="13"></circle>
                <path d="M62.43,113.05 C60.43,112.72 59.86,114.42 58.64,114.45 C57.42,114.48 56.81,112.72 54.85,113.05 C51.99,113.53 47.21,116.16 47.21,116.16 C47.21,116.16 54.38,118.32 58.64,118.32 C62.9,118.32 70.07,116.16 70.07,116.16 C70.07,116.16 65.29,113.52 62.43,113.05 Z" id="Shape" fill="#EC1A3C"></path>
                <path d="M48.9,117.35 C51.87136,118.444119 54.9886562,119.091168 58.15,119.27 C62.31,119.27 68.48,117.35 68.48,117.35 C68.48,117.35 63.05,122.14 57.93,122.14 C52.81,122.14 48.9,117.35 48.9,117.35 Z" id="Shape" fill="#EC1A3C"></path>
                <path d="M37.34,67.59 L22.9,82.03 C23.2832065,85.2448245 24.8522117,88.2009728 27.3,90.32 L45.62,72 C43.5050847,69.5506785 40.5526842,67.9782043 37.34,67.59 L37.34,67.59 Z" id="Shape" fill="#FFFFFF"></path>
                <path d="M48.29,76.88 C47.9825015,75.8284277 47.5422913,74.8203128 46.98,73.88 L29.15,91.67 C30.0903625,92.2321946 31.0984648,92.6723993 32.15,92.98 L48.29,76.88 Z" id="Shape" fill="#FFFFFF"></path>
                <path d="M85.8,67.51 L72.58,80.73 C72.6357583,84.0799751 73.9827477,87.2790749 76.34,89.66 L94.73,71.27 C92.3490749,68.9127477 89.1499751,67.5657583 85.8,67.51 L85.8,67.51 Z" id="Shape" fill="#FFFFFF"></path>
                <path d="M97.71,75.84 C97.3278197,74.8419148 96.8240178,73.8947674 96.21,73.02 L78.11,91.12 C78.9847674,91.7340178 79.9319148,92.2378197 80.93,92.62 L97.71,75.84 Z" id="Shape" fill="#FFFFFF"></path>
            </g>
        </g>
    </g>
</svg>